<svg width="23" height="26" viewBox="0 0 23 26" fill="none" xmlns="http://www.w3.org/2000/svg">
<foreignObject x="-2.26483" y="-2.26483" width="27.3205" height="29.8529"><div xmlns="http://www.w3.org/1999/xhtml" style="backdrop-filter:blur(1.13px);clip-path:url(#bgblur_0_446_493_clip_path);height:100%;width:100%"></div></foreignObject><g filter="url(#filter0_iii_446_493)" data-figma-bg-blur-radius="2.26483">
<mask id="path-1-inside-1_446_493" fill="white">
<path d="M22.7909 12.6616L11.3954 25.3232L0 12.6616L11.3954 0"/>
</mask>
<path d="M22.7909 12.6616L11.3954 25.3232L0 12.6616L11.3954 0" fill="#BF1DFF" fill-opacity="0.6"/>
<path d="M11.3954 25.3232L11.2468 25.457L11.3954 25.6221L11.5441 25.457L11.3954 25.3232ZM0 12.6616L-0.148659 12.5278L-0.269073 12.6616L-0.148659 12.7954L0 12.6616ZM22.7909 12.6616L22.6422 12.5278L11.2468 25.1894L11.3954 25.3232L11.5441 25.457L22.9395 12.7954L22.7909 12.6616ZM11.3954 25.3232L11.5441 25.1894L0.148659 12.5278L0 12.6616L-0.148659 12.7954L11.2468 25.457L11.3954 25.3232ZM0 12.6616L0.148659 12.7954L11.5441 0.133793L11.3954 0L11.2468 -0.133793L-0.148659 12.5278L0 12.6616Z" fill="url(#paint0_linear_446_493)" mask="url(#path-1-inside-1_446_493)"/>
</g>
<defs>
<filter id="filter0_iii_446_493" x="-2.26483" y="-2.26483" width="27.3205" height="29.8529" filterUnits="userSpaceOnUse" color-interpolation-filters="sRGB">
<feFlood flood-opacity="0" result="BackgroundImageFix"/>
<feBlend mode="normal" in="SourceGraphic" in2="BackgroundImageFix" result="shape"/>
<feColorMatrix in="SourceAlpha" type="matrix" values="0 0 0 0 0 0 0 0 0 0 0 0 0 0 0 0 0 0 127 0" result="hardAlpha"/>
<feOffset/>
<feGaussianBlur stdDeviation="2.83103"/>
<feComposite in2="hardAlpha" operator="arithmetic" k2="-1" k3="1"/>
<feColorMatrix type="matrix" values="0 0 0 0 0.949275 0 0 0 0 0.948954 0 0 0 0 0.948954 0 0 0 0.9 0"/>
<feBlend mode="hard-light" in2="shape" result="effect1_innerShadow_446_493"/>
<feColorMatrix in="SourceAlpha" type="matrix" values="0 0 0 0 0 0 0 0 0 0 0 0 0 0 0 0 0 0 127 0" result="hardAlpha"/>
<feOffset dx="1.13241" dy="0.849309"/>
<feGaussianBlur stdDeviation="1.41552"/>
<feComposite in2="hardAlpha" operator="arithmetic" k2="-1" k3="1"/>
<feColorMatrix type="matrix" values="0 0 0 0 0 0 0 0 0 0 0 0 0 0 0 0 0 0 1 0"/>
<feBlend mode="overlay" in2="effect1_innerShadow_446_493" result="effect2_innerShadow_446_493"/>
<feColorMatrix in="SourceAlpha" type="matrix" values="0 0 0 0 0 0 0 0 0 0 0 0 0 0 0 0 0 0 127 0" result="hardAlpha"/>
<feOffset/>
<feGaussianBlur stdDeviation="1.41552"/>
<feComposite in2="hardAlpha" operator="arithmetic" k2="-1" k3="1"/>
<feColorMatrix type="matrix" values="0 0 0 0 0 0 0 0 0 0 0 0 0 0 0 0 0 0 1 0"/>
<feBlend mode="soft-light" in2="effect2_innerShadow_446_493" result="effect3_innerShadow_446_493"/>
</filter>
<clipPath id="bgblur_0_446_493_clip_path" transform="translate(2.26483 2.26483)"><path d="M22.7909 12.6616L11.3954 25.3232L0 12.6616L11.3954 0"/>
</clipPath><linearGradient id="paint0_linear_446_493" x1="4.17792" y1="1.38437" x2="18.5062" y2="23.1533" gradientUnits="userSpaceOnUse">
<stop stop-color="#F2F2F2" stop-opacity="0.4"/>
<stop offset="0.445242" stop-color="white" stop-opacity="0"/>
<stop offset="1" stop-color="white" stop-opacity="0.5"/>
</linearGradient>
</defs>
</svg>
