<svg width="26" height="26" viewBox="0 0 26 26" fill="none" xmlns="http://www.w3.org/2000/svg">
<path d="M9.38467 12.699L7.75448 14.328L12.6427 19.2163L17.531 14.328L15.902 12.699L13.7948 14.805L13.7948 6.1218L11.4907 6.1218L11.4907 14.805L9.38467 12.699Z" fill="#05E7AE"/>
<path fill-rule="evenodd" clip-rule="evenodd" d="M25.3457 4.60831C25.3457 3.38611 24.8602 2.21397 23.996 1.34974C23.1317 0.485518 21.9596 2.96023e-07 20.7374 4.02871e-07L4.60831 1.81292e-06C3.38611 1.91977e-06 2.21397 0.48552 1.34974 1.34974C0.485518 2.21397 2.96023e-07 3.38611 4.02871e-07 4.60831L1.81292e-06 20.7374C1.91977e-06 21.9596 0.48552 23.1317 1.34974 23.996C2.21397 24.8602 3.38611 25.3457 4.60831 25.3457L20.7374 25.3457C21.9596 25.3457 23.1317 24.8602 23.996 23.996C24.8602 23.1317 25.3457 21.9596 25.3457 20.7374L25.3457 4.60831ZM20.7374 2.30415L4.60831 2.30416C3.99721 2.30416 3.41114 2.54692 2.97903 2.97903C2.54691 3.41114 2.30415 3.99721 2.30415 4.60831L2.30416 20.7374C2.30416 21.3485 2.54692 21.9346 2.97903 22.3667C3.41114 22.7988 3.99721 23.0416 4.60831 23.0416L20.7374 23.0415C21.3485 23.0415 21.9346 22.7988 22.3667 22.3667C22.7988 21.9346 23.0416 21.3485 23.0416 20.7374L23.0415 4.60831C23.0415 3.99721 22.7988 3.41114 22.3667 2.97903C21.9346 2.54691 21.3485 2.30415 20.7374 2.30415Z" fill="#05E7AE"/>
</svg>
