<svg width="32" height="32" viewBox="0 0 32 32" fill="none" xmlns="http://www.w3.org/2000/svg">
<path fill-rule="evenodd" clip-rule="evenodd" d="M18.392 4.39334C17.3371 4.03558 16.2154 3.91899 15.1094 4.05217C14.0035 4.18535 12.9415 4.5649 12.0017 5.16288C11.0619 5.76085 10.2682 6.56202 9.67899 7.50738C9.08982 8.45273 8.7202 9.51821 8.59735 10.6253L8.26135 13.648L8.25335 13.724C8.08121 15.2227 7.59313 16.6678 6.82135 17.964L6.78135 18.0307L6.01201 19.3147C5.31201 20.48 4.96268 21.0627 5.03868 21.5413C5.08889 21.8591 5.25226 22.1479 5.49868 22.3547C5.87068 22.6667 6.55068 22.6667 7.90935 22.6667H24.0907C25.4507 22.6667 26.1307 22.6667 26.5013 22.356C26.7485 22.1491 26.9124 21.8597 26.9627 21.5413C27.0373 21.0627 26.688 20.48 25.9893 19.3147L25.2173 18.0293L25.1773 17.9627C24.5702 16.9425 24.1375 15.828 23.8973 14.6653C22.7088 14.6472 21.5467 14.3116 20.5315 13.6932C19.5162 13.0749 18.6848 12.1964 18.1232 11.1487C17.5617 10.101 17.2905 8.92219 17.3378 7.73442C17.385 6.54666 17.749 5.39313 18.392 4.39334ZM21.6987 6.65201C22.6424 7.77113 23.2343 9.14419 23.4 10.5987C22.9923 10.5046 22.6125 10.316 22.2912 10.048C21.9699 9.77995 21.7162 9.4401 21.5506 9.05589C21.385 8.67167 21.3121 8.25388 21.3378 7.83628C21.3635 7.41868 21.4871 7.01299 21.6987 6.65201Z" fill="white"/>
<path d="M12 22.6667C12 23.7275 12.4214 24.7449 13.1716 25.4951C13.9217 26.2452 14.9391 26.6667 16 26.6667C17.0609 26.6667 18.0783 26.2452 18.8284 25.4951C19.5786 24.7449 20 23.7275 20 22.6667H12Z" fill="white"/>
<path d="M23.5197 14.75C27.1095 14.75 30.0197 11.8399 30.0197 8.25C30.0197 4.66015 27.1095 1.75 23.5197 1.75C19.9298 1.75 17.0197 4.66015 17.0197 8.25C17.0197 11.8399 19.9298 14.75 23.5197 14.75Z" fill="#FF132B" stroke="#FF132B"/>
<path d="M21.2676 10.705L23.6398 7.8835C24.0508 7.38887 24.3295 7.01963 24.4758 6.7758C24.643 6.5041 24.7266 6.2115 24.7266 5.898C24.7266 5.5427 24.6186 5.26752 24.4026 5.07245C24.2006 4.89132 23.9185 4.80075 23.5562 4.80075C23.18 4.80075 22.8804 4.89828 22.6575 5.09335C22.4206 5.27448 22.2708 5.52877 22.2081 5.8562H21.1004C21.1631 5.45213 21.3094 5.09335 21.5393 4.77985C21.7623 4.47332 22.0584 4.23297 22.4276 4.0588C22.7829 3.8916 23.1765 3.808 23.6084 3.808C24.2703 3.808 24.8137 3.98913 25.2386 4.3514C25.6636 4.71367 25.8761 5.21875 25.8761 5.86665C25.8761 6.15925 25.8169 6.44488 25.6984 6.72355C25.58 7.00918 25.4407 7.25998 25.2804 7.47595C25.1341 7.67798 24.9147 7.95317 24.6221 8.3015L24.4026 8.5523L22.647 10.6423V10.6527H25.9701V11.6246H21.2676V10.705Z" fill="white"/>
</svg>
