<svg width="26" height="26" viewBox="0 0 26 26" fill="none" xmlns="http://www.w3.org/2000/svg">
<path d="M15.961 12.6468L17.5912 11.0178L12.703 6.12952L7.8147 11.0178L9.44374 12.6468L11.5509 10.5408L11.5509 19.224L13.855 19.224L13.855 10.5408L15.961 12.6468Z" fill="#FF132B"/>
<path fill-rule="evenodd" clip-rule="evenodd" d="M8.05742e-07 20.7375C5.92046e-07 21.9597 0.485517 23.1319 1.34974 23.9961C2.21397 24.8603 3.38611 25.3458 4.60831 25.3458L20.7374 25.3458C21.9596 25.3458 23.1317 24.8603 23.996 23.9961C24.8602 23.1319 25.3457 21.9597 25.3457 20.7375L25.3457 4.60844C25.3457 3.38624 24.8602 2.21409 23.996 1.34987C23.1317 0.485643 21.9596 0.00012591 20.7374 0.000125696L4.60831 0.000122876C3.38611 0.000122662 2.21397 0.485639 1.34975 1.34987C0.485521 2.21409 3.83954e-06 3.38623 3.62584e-06 4.60843L8.05742e-07 20.7375ZM4.60831 23.0417L20.7374 23.0417C21.3485 23.0417 21.9346 22.7989 22.3667 22.3668C22.7988 21.9347 23.0416 21.3486 23.0416 20.7375L23.0416 4.60844C23.0416 3.99734 22.7988 3.41127 22.3667 2.97915C21.9346 2.54704 21.3485 2.30428 20.7374 2.30428L4.60831 2.30428C3.99721 2.30428 3.41114 2.54704 2.97903 2.97915C2.54692 3.41126 2.30416 3.99733 2.30416 4.60843L2.30416 20.7375C2.30416 21.3486 2.54691 21.9347 2.97903 22.3668C3.41114 22.7989 3.99721 23.0417 4.60831 23.0417Z" fill="#FF132B"/>
</svg>
