<svg width="14" height="14" viewBox="0 0 14 14" fill="none" xmlns="http://www.w3.org/2000/svg">
<path d="M7.00045 1.16553C10.2222 1.16553 12.8338 3.77711 12.8338 6.99886C12.8338 10.2206 10.2222 12.8322 7.00045 12.8322C3.7787 12.8322 1.16711 10.2206 1.16711 6.99886C1.16711 3.77711 3.7787 1.16553 7.00045 1.16553ZM7.00045 2.33219C5.76277 2.33219 4.57579 2.82386 3.70062 3.69903C2.82545 4.5742 2.33378 5.76118 2.33378 6.99886C2.33378 8.23654 2.82545 9.42352 3.70062 10.2987C4.57579 11.1739 5.76277 11.6655 7.00045 11.6655C8.23812 11.6655 9.42511 11.1739 10.3003 10.2987C11.1754 9.42352 11.6671 8.23654 11.6671 6.99886C11.6671 5.76118 11.1754 4.5742 10.3003 3.69903C9.42511 2.82386 8.23812 2.33219 7.00045 2.33219ZM7.00045 3.49886C7.14333 3.49888 7.28123 3.55133 7.388 3.64628C7.49477 3.74122 7.56298 3.87205 7.5797 4.01394L7.58378 4.08219V6.75736L9.16286 8.33644C9.26748 8.44142 9.32822 8.58228 9.33275 8.73042C9.33727 8.87855 9.28524 9.02286 9.18722 9.13402C9.0892 9.24519 8.95254 9.31487 8.805 9.32893C8.65747 9.34298 8.51011 9.30035 8.39286 9.20969L8.33803 9.16128L6.58803 7.41128C6.49737 7.32054 6.43914 7.20245 6.42236 7.07528L6.41711 6.99886V4.08219C6.41711 3.92748 6.47857 3.77911 6.58797 3.66972C6.69736 3.56032 6.84574 3.49886 7.00045 3.49886Z" fill="white"/>
</svg>
