<svg width="15" height="16" viewBox="0 0 15 16" fill="none" xmlns="http://www.w3.org/2000/svg">
<path fill-rule="evenodd" clip-rule="evenodd" d="M1.44233 7.45178C1.44233 5.85798 2.07547 4.32945 3.20246 3.20246C4.32945 2.07547 5.85798 1.44233 7.45178 1.44233C9.04559 1.44233 10.5741 2.07547 11.7011 3.20246C12.8281 4.32945 13.4612 5.85798 13.4612 7.45178V11.2977C13.4612 11.8715 13.2333 12.4218 12.8276 12.8276C12.4218 13.2333 11.8715 13.4612 11.2977 13.4612H9.11767C8.78482 13.0299 8.16384 12.7401 7.45178 12.7401C6.38949 12.7401 5.52839 13.3859 5.52839 14.1816C5.52839 14.9789 6.38949 15.6239 7.45178 15.6239C8.16384 15.6239 8.78482 15.3341 9.11767 14.9036H11.2977C11.7713 14.9036 12.2403 14.8103 12.6778 14.629C13.1153 14.4477 13.5129 14.1821 13.8477 13.8471C14.1826 13.5122 14.4482 13.1146 14.6293 12.677C14.8105 12.2395 14.9037 11.7705 14.9036 11.2969V7.45178C14.9036 6.4732 14.7108 5.5042 14.3363 4.60011C13.9618 3.69602 13.4129 2.87454 12.721 2.18258C12.029 1.49061 11.2075 0.94172 10.3035 0.567233C9.39936 0.192746 8.43036 0 7.45178 0C6.4732 0 5.5042 0.192746 4.60011 0.567233C3.69602 0.94172 2.87454 1.49061 2.18258 2.18258C1.49061 2.87454 0.94172 3.69602 0.567233 4.60011C0.192746 5.5042 -1.4582e-08 6.4732 0 7.45178V8.89329C0 9.08455 0.0759799 9.26799 0.211225 9.40323C0.34647 9.53848 0.529902 9.61446 0.721167 9.61446C0.912432 9.61446 1.09586 9.53848 1.23111 9.40323C1.36635 9.26799 1.44233 9.08455 1.44233 8.89329V7.45178Z" fill="white"/>
<path d="M2.16382 8.41157C2.16404 7.9016 2.36678 7.41259 2.72746 7.05207C3.08814 6.69154 3.57724 6.48901 4.08721 6.48901H4.56743C5.09899 6.48901 5.52954 6.91956 5.52954 7.45112V10.816C5.52954 11.3467 5.09899 11.7773 4.56826 11.7773H4.08721C3.57724 11.7773 3.08814 11.5748 2.72746 11.2142C2.36678 10.8537 2.16404 10.3647 2.16382 9.85474V8.41157ZM12.7412 8.41157C12.741 7.9016 12.5383 7.41259 12.1776 7.05207C11.8169 6.69154 11.3278 6.48901 10.8178 6.48901H10.3376C9.80604 6.48901 9.37549 6.91956 9.37549 7.45112V10.816C9.37549 11.3467 9.80604 11.7773 10.3368 11.7773H10.817C11.327 11.7773 11.8161 11.5748 12.1767 11.2142C12.5374 10.8537 12.7402 10.3647 12.7404 9.85474L12.7412 8.41157Z" fill="white"/>
</svg>
