<svg width="13" height="10" viewBox="0 0 13 10" fill="none" xmlns="http://www.w3.org/2000/svg">
<path d="M2.5 10L3.4375 7.65625C3.53125 7.41667 3.68229 7.22646 3.89063 7.08562C4.09896 6.94479 4.33333 6.87458 4.59375 6.875H5.625V4.35938C4.03125 4.30729 2.69521 4.07292 1.61688 3.65625C0.538542 3.23958 -0.000416425 2.75 2.41406e-07 2.1875C2.41406e-07 1.58333 0.609375 1.06771 1.82813 0.640625C3.04688 0.213542 4.52083 0 6.25 0C7.98958 0 9.46625 0.213542 10.68 0.640625C11.8937 1.06771 12.5004 1.58333 12.5 2.1875C12.5 2.75 11.9608 3.23958 10.8825 3.65625C9.80417 4.07292 8.46833 4.30729 6.875 4.35938V6.875H7.90625C8.15625 6.875 8.38812 6.94542 8.60187 7.08625C8.81562 7.22708 8.96917 7.41708 9.0625 7.65625L10 10H8.75L8 8.125H4.5L3.75 10H2.5Z" fill="white"/>
</svg>
