<svg width="33" height="21" viewBox="0 0 33 21" fill="none" xmlns="http://www.w3.org/2000/svg">
<path fill-rule="evenodd" clip-rule="evenodd" d="M10.741 0C9.00172 0 7.35875 0.758356 6.28452 2.05703L0.51853 9.02769C-0.172844 9.86352 -0.172843 11.0397 0.518531 11.8755L6.28452 18.8462C7.35876 20.1449 9.00172 20.9032 10.741 20.9032H27.9777C30.2131 20.9032 32.0252 19.1829 32.0252 17.0607V3.84251C32.0252 1.72035 30.2131 0 27.9777 0H10.741ZM14.0822 5.02546C14.5563 4.57528 15.3251 4.57528 15.7993 5.02546L19.7977 8.82136L23.796 5.02547C24.2702 4.57529 25.039 4.57529 25.5132 5.02547C25.9874 5.47565 25.9874 6.20553 25.5132 6.65571L21.5149 10.4516L25.5132 14.2475C25.9874 14.6977 25.9874 15.4275 25.5132 15.8777C25.039 16.3279 24.2702 16.3279 23.796 15.8777L19.7977 12.0818L15.7993 15.8777C15.3252 16.3279 14.5564 16.3279 14.0822 15.8777C13.608 15.4275 13.608 14.6977 14.0822 14.2475L18.0805 10.4516L14.0822 6.65569C13.608 6.20552 13.608 5.47564 14.0822 5.02546Z" fill="white"/>
</svg>
