<svg width="13" height="11" viewBox="0 0 13 11" fill="none" xmlns="http://www.w3.org/2000/svg">
<path d="M2.1874 2.35283C2.18741 2.08137 2.26598 1.81571 2.41365 1.58792C2.56131 1.36013 2.77175 1.17995 3.01956 1.06913C3.26738 0.95831 3.54197 0.921584 3.81019 0.963385C4.07842 1.00519 4.32881 1.12373 4.53115 1.30471C4.62394 1.38673 4.74542 1.42871 4.86905 1.42146C4.99269 1.41421 5.10843 1.35833 5.191 1.26602C5.27357 1.17371 5.31625 1.05248 5.30972 0.9288C5.30319 0.805124 5.24798 0.689058 5.15615 0.605956C4.92709 0.398663 4.65931 0.2387 4.3682 0.135267C4.0771 0.0318341 3.76842 -0.0130283 3.45992 0.00326012C3.15142 0.0195485 2.84918 0.0966663 2.57059 0.230178C2.292 0.36369 2.04255 0.550963 1.83659 0.781224C1.63063 1.01148 1.47223 1.28019 1.37049 1.57189C1.26875 1.86359 1.22568 2.17252 1.24376 2.48092C1.26185 2.78933 1.34072 3.09111 1.47585 3.36892C1.61098 3.64673 1.79969 3.89509 2.03115 4.09971C2.12394 4.18173 2.24542 4.22371 2.36905 4.21646C2.49269 4.20921 2.60843 4.15333 2.691 4.06102C2.77357 3.96871 2.81625 3.84748 2.80972 3.7238C2.80319 3.60012 2.74798 3.48406 2.65615 3.40096C2.50837 3.26931 2.39018 3.10783 2.30938 2.92716C2.22858 2.74649 2.18701 2.55074 2.1874 2.35283ZM8.59365 0.00908126C8.01702 0.00850683 7.46053 0.221086 7.03115 0.605956C6.93932 0.689058 6.88411 0.805124 6.87758 0.9288C6.87105 1.05248 6.91373 1.17371 6.9963 1.26602C7.07887 1.35833 7.19461 1.41421 7.31824 1.42146C7.44188 1.42871 7.56336 1.38673 7.65615 1.30471C7.93421 1.05607 8.29966 0.928069 8.67209 0.948874C9.04453 0.969679 9.39345 1.13758 9.64209 1.41564C9.89073 1.69371 10.0187 2.05915 9.99792 2.43159C9.97711 2.80402 9.80921 3.15294 9.53115 3.40158C9.44311 3.48563 9.39122 3.60063 9.38645 3.72226C9.38168 3.84389 9.42441 3.9626 9.5056 4.05328C9.58679 4.14397 9.70007 4.19952 9.82148 4.20818C9.94289 4.21685 10.0629 4.17795 10.1561 4.09971C10.5099 3.78326 10.7593 3.36685 10.8712 2.90558C10.9832 2.44431 10.9524 1.95993 10.7831 1.51652C10.6137 1.07311 10.3137 0.691575 9.92272 0.422399C9.53177 0.153223 9.0683 0.00909328 8.59365 0.00908126Z" fill="white"/>
<path d="M6.09375 1.88379C5.78596 1.88379 5.48119 1.94441 5.19684 2.0622C4.91248 2.17998 4.65411 2.35262 4.43647 2.57026C4.21883 2.78789 4.04619 3.04627 3.92841 3.33062C3.81062 3.61498 3.75 3.91975 3.75 4.22754C3.75 4.53532 3.81062 4.8401 3.92841 5.12445C4.04619 5.40881 4.21883 5.66718 4.43647 5.88482C4.65411 6.10246 4.91248 6.2751 5.19684 6.39288C5.48119 6.51067 5.78596 6.57129 6.09375 6.57129C6.71535 6.57129 7.31149 6.32436 7.75103 5.88482C8.19057 5.44528 8.4375 4.84914 8.4375 4.22754C8.4375 3.60594 8.19057 3.0098 7.75103 2.57026C7.31149 2.13072 6.71535 1.88379 6.09375 1.88379ZM2.4625 6.71254C2.52209 6.69694 2.57802 6.66977 2.6271 6.63256C2.67619 6.59534 2.71746 6.54883 2.74857 6.49567C2.77968 6.44251 2.80001 6.38374 2.8084 6.32272C2.8168 6.2617 2.81309 6.19963 2.7975 6.14004C2.78191 6.08045 2.75473 6.02452 2.71752 5.97544C2.68031 5.92635 2.63379 5.88508 2.58063 5.85397C2.52747 5.82286 2.4687 5.80253 2.40768 5.79413C2.34666 5.78574 2.28459 5.78944 2.225 5.80504C1.61875 5.96441 1.0775 6.23129 0.67875 6.59004C0.27875 6.94941 0 7.42504 0 7.97754C0 8.10186 0.049386 8.22109 0.137294 8.309C0.225201 8.3969 0.34443 8.44629 0.46875 8.44629C0.59307 8.44629 0.712299 8.3969 0.800206 8.309C0.888114 8.22109 0.9375 8.10186 0.9375 7.97754C0.9375 7.76129 1.04375 7.52191 1.30625 7.28691C1.56875 7.05066 1.965 6.84379 2.4625 6.71254ZM9.9625 5.80566C9.84409 5.77929 9.72007 5.79984 9.61651 5.86301C9.51294 5.92617 9.43789 6.02702 9.40714 6.14437C9.37639 6.26171 9.39233 6.38641 9.4516 6.49225C9.51088 6.59809 9.60888 6.67683 9.725 6.71191C10.2225 6.84316 10.6187 7.05066 10.8812 7.28691C11.1437 7.52191 11.25 7.76191 11.25 7.97754C11.25 8.10186 11.2994 8.22109 11.3873 8.309C11.4752 8.3969 11.5944 8.44629 11.7187 8.44629C11.8431 8.44629 11.9623 8.3969 12.0502 8.309C12.1381 8.22109 12.1875 8.10186 12.1875 7.97754C12.1875 7.42504 11.9087 6.94941 11.5087 6.59004C11.11 6.23129 10.5687 5.96441 9.9625 5.80566ZM6.09375 7.50879C5.16062 7.50879 4.29312 7.73504 3.64313 8.12504C3.0025 8.50941 2.5 9.10566 2.5 9.85254C2.5 9.97686 2.54939 10.0961 2.63729 10.184C2.7252 10.2719 2.84443 10.3213 2.96875 10.3213C3.09307 10.3213 3.2123 10.2719 3.30021 10.184C3.38811 10.0961 3.4375 9.97686 3.4375 9.85254C3.4375 9.56379 3.635 9.22316 4.125 8.92879C4.60625 8.64004 5.30125 8.44629 6.09375 8.44629C6.88625 8.44629 7.58125 8.64004 8.0625 8.92879C8.5525 9.22254 8.75 9.56441 8.75 9.85254C8.75 9.97686 8.79939 10.0961 8.88729 10.184C8.9752 10.2719 9.09443 10.3213 9.21875 10.3213C9.34307 10.3213 9.4623 10.2719 9.55021 10.184C9.63811 10.0961 9.6875 9.97686 9.6875 9.85254C9.6875 9.10566 9.185 8.50879 8.54437 8.12504C7.89437 7.73504 7.02687 7.50879 6.09375 7.50879Z" fill="white"/>
</svg>
