<svg width="15" height="14" viewBox="0 0 15 14" fill="none" xmlns="http://www.w3.org/2000/svg">
<path fill-rule="evenodd" clip-rule="evenodd" d="M2.11216 2.51587C1.55198 2.51587 1.01474 2.74021 0.618637 3.13954C0.22253 3.53887 0 4.08048 0 4.64522V11.614C0 12.1787 0.22253 12.7203 0.618637 13.1197C1.01474 13.519 1.55198 13.7433 2.11216 13.7433H12.865C13.4251 13.7433 13.9624 13.519 14.3585 13.1197C14.7546 12.7203 14.9771 12.1787 14.9771 11.614V4.64522C14.9771 4.08048 14.7546 3.53887 14.3585 3.13954C13.9624 2.74021 13.4251 2.51587 12.865 2.51587H2.11216ZM10.9448 7.16172C10.6902 7.16172 10.446 7.26369 10.266 7.4452C10.0859 7.62672 9.98475 7.8729 9.98475 8.1296C9.98475 8.3863 10.0859 8.63249 10.266 8.814C10.446 8.99551 10.6902 9.09749 10.9448 9.09749C11.1995 9.09749 11.4437 8.99551 11.6237 8.814C11.8037 8.63249 11.9049 8.3863 11.9049 8.1296C11.9049 7.8729 11.8037 7.62672 11.6237 7.4452C11.4437 7.26369 11.1995 7.16172 10.9448 7.16172Z" fill="white"/>
<path d="M10.9346 0.0522221C11.1621 -0.00887199 11.4003 -0.0164724 11.6311 0.0300073C11.8619 0.0764871 12.079 0.175804 12.2657 0.320293C12.4523 0.464782 12.6036 0.650579 12.7077 0.863344C12.8119 1.07611 12.8661 1.31015 12.8663 1.54741H5.18573L10.9346 0.0522221Z" fill="white"/>
</svg>
